<?xml version="1.0" standalone="no"?>
<!DOCTYPE svg PUBLIC "-//W3C//DTD SVG 20010904//EN"
 "http://www.w3.org/TR/2001/REC-SVG-20010904/DTD/svg10.dtd">
<svg version="1.0" xmlns="http://www.w3.org/2000/svg"
 width="512.000000pt" height="512.000000pt" viewBox="0 0 512.000000 512.000000"
 preserveAspectRatio="xMidYMid meet">
<metadata>
Created by potrace 1.11, written by Peter Selinger 2001-2013
</metadata>
<g transform="translate(0.000000,512.000000) scale(0.100000,-0.100000)"
fill="#000000" stroke="none">
<path d="M2387 4624 c-87 -16 -229 -67 -247 -89 -7 -8 -17 -15 -23 -15 -13 0
-93 -64 -136 -109 -83 -88 -169 -255 -196 -378 l-7 -33 -758 -2 c-748 -3 -759
-3 -786 -24 -15 -11 -37 -33 -48 -48 -21 -27 -21 -36 -21 -726 0 -800 -10
-721 98 -793 l57 -38 1 -877 c0 -652 3 -886 12 -912 7 -20 30 -48 55 -67 l43
-33 2134 3 2134 2 27 21 c15 11 37 33 48 48 21 27 21 36 24 924 l2 897 49 28
c60 33 98 77 106 120 3 18 5 334 3 704 -3 660 -3 672 -24 699 -11 15 -33 37
-48 48 -27 21 -38 21 -785 24 l-758 2 -17 62 c-80 289 -264 479 -531 549 -104
27 -299 33 -408 13z m315 -320 c82 -19 149 -57 202 -114 42 -44 84 -116 100
-167 l7 -23 -451 0 -451 0 7 23 c27 89 106 189 183 235 97 57 272 76 403 46z
m1938 -1139 l0 -514 -59 -34 c-172 -101 -513 -249 -756 -329 -172 -55 -489
-134 -615 -153 -25 -3 -54 -8 -65 -9 -11 -2 -47 -7 -80 -10 -33 -4 -67 -9 -75
-11 -15 -4 -177 -17 -235 -19 l-30 -1 -6 105 c-6 117 -13 137 -65 176 -69 53
-166 40 -220 -32 -27 -35 -29 -45 -32 -144 l-4 -107 -37 3 c-20 1 -78 5 -129
8 -51 4 -98 9 -105 11 -6 2 -36 6 -65 9 -77 9 -122 16 -172 26 -25 5 -61 12
-80 15 -234 38 -614 156 -902 281 -126 55 -389 185 -415 206 -10 8 -13 125
-13 524 l0 514 2080 0 2080 0 0 -515z m-3906 -1001 c44 -20 95 -42 111 -49
151 -67 533 -192 705 -231 19 -4 40 -9 45 -10 117 -28 348 -70 440 -79 33 -4
67 -8 75 -10 17 -5 173 -17 240 -19 l45 -1 6 -110 c6 -122 13 -142 65 -181 70
-53 166 -40 220 32 27 35 29 44 32 148 l4 111 42 1 c43 1 180 12 231 18 17 2
57 7 90 10 53 6 85 11 199 30 16 3 52 10 80 15 28 6 62 13 76 15 14 2 63 14
110 26 47 11 92 23 100 24 166 40 513 158 675 231 107 48 146 65 150 65 3 0 5
-315 5 -700 l0 -700 -1920 0 -1920 0 0 700 c0 385 3 700 6 700 4 0 43 -16 88
-36z"/>
</g>
</svg>
